<?xml version="1.0" encoding="UTF-8"?>
<svg version="1.1" xmlns="http://www.w3.org/2000/svg" width="256" height="256">
<path d="M0 0 C22.03852652 18.81159856 36.46579334 41.06373377 44.3515625 68.91015625 C44.69316406 70.08835937 45.03476563 71.2665625 45.38671875 72.48046875 C52.92056498 104.36791093 46.53869956 140.38566089 29.7109375 168.21484375 C19.22380228 184.89578124 5.20171214 199.62660904 -11.6484375 209.91015625 C-12.7209375 210.59335938 -13.7934375 211.2765625 -14.8984375 211.98046875 C-42.75922794 228.94201478 -78.25061189 233.92648545 -110.03027344 226.74707031 C-117.81941729 224.77736357 -125.2980262 222.14033195 -132.6484375 218.91015625 C-133.30263672 218.62688477 -133.95683594 218.34361328 -134.63085938 218.05175781 C-164.72593234 204.76588414 -188.43262339 179.18859339 -200.51953125 148.71386719 C-202.47890077 143.51521742 -204.1350825 138.25415274 -205.6484375 132.91015625 C-205.99003906 131.73195312 -206.33164063 130.55375 -206.68359375 129.33984375 C-214.21743998 97.45240157 -207.83557456 61.43465161 -191.0078125 33.60546875 C-172.71931393 4.51560818 -145.47270495 -14.79440926 -112.6484375 -24.08984375 C-111.47023438 -24.43144531 -110.29203125 -24.77304687 -109.078125 -25.125 C-71.91216204 -33.90596927 -29.43835184 -24.14652242 0 0 Z " fill="#B82BF6" transform="translate(208.6484375,27.08984375)"/>
<path d="M0 0 C1.49077057 -0.00856522 1.49077057 -0.00856522 3.01165771 -0.01730347 C4.10104141 -0.01842133 5.19042511 -0.01953918 6.31282043 -0.02069092 C7.46108307 -0.02565582 8.6093457 -0.03062073 9.79240417 -0.03573608 C13.60105483 -0.05037174 17.40966382 -0.05716268 21.21833801 -0.06268311 C23.86289471 -0.06843415 26.50745139 -0.07419189 29.15200806 -0.07995605 C33.99302893 -0.08952806 38.83404081 -0.09542417 43.67506999 -0.09845281 C50.78835743 -0.1029279 57.90145217 -0.12045021 65.01468104 -0.1494534 C70.5197082 -0.17111595 76.02468134 -0.18115959 81.52975065 -0.18249393 C84.81422283 -0.18353907 88.0984733 -0.19084305 91.38290977 -0.20731354 C95.05240262 -0.22439873 98.72142877 -0.22248717 102.39094543 -0.21600342 C103.47020798 -0.2252182 104.54947052 -0.23443298 105.66143799 -0.243927 C113.08695195 -0.20289919 118.99005378 0.53427468 124.92536926 5.39044189 C131.43936603 13.3519935 131.76980551 19.03187405 131.70661926 29.21075439 C131.7093179 30.5788297 131.71320342 31.94690314 131.71821594 33.31497192 C131.72408969 36.17120771 131.71561516 39.02694066 131.69685364 41.88311768 C131.67402074 45.53617748 131.68722627 49.18806439 131.71114349 52.84108162 C131.72562279 55.66192407 131.72098673 58.48248996 131.71063232 61.30334091 C131.70668503 63.30244464 131.7187844 65.30155932 131.7311554 67.30062866 C131.71224243 69.12810135 131.71224243 69.12810135 131.69294739 70.99249268 C131.68976501 72.06169952 131.68658264 73.13090637 131.68330383 74.23251343 C131.04633831 77.87914486 129.79615998 79.56219458 127.17536926 82.14044189 C123.67536926 82.70294189 123.67536926 82.70294189 120.17536926 82.14044189 C117.40345383 80.03067283 116.30678735 78.84649652 115.66311646 75.38832092 C115.65725021 74.33432602 115.65138397 73.28033112 115.64533997 72.19439697 C115.62884903 70.99668167 115.61235809 69.79896637 115.59536743 68.56495667 C115.59823006 66.63198982 115.59823006 66.63198982 115.60115051 64.65997314 C115.58870374 63.32285227 115.57436904 61.98574776 115.55822754 60.64866638 C115.52023431 57.13586031 115.50501822 53.62333616 115.49543762 50.11035156 C115.47567509 44.47691545 115.41896764 38.84369384 115.36667442 33.21048546 C115.35128782 31.24005722 115.34486926 29.26956564 115.33853149 27.29908752 C115.32797981 25.5166993 115.32797981 25.5166993 115.31721497 23.69830322 C115.3137355 22.6466951 115.31025604 21.59508698 115.30667114 20.51161194 C115.44221055 18.18497335 115.44221055 18.18497335 114.17536926 17.14044189 C112.67218222 17.04252494 111.16440793 17.01412391 109.65803528 17.01345825 C108.6820639 17.01063843 107.70609253 17.0078186 106.70054626 17.00491333 C105.62102692 17.00693756 104.54150757 17.00896179 103.42927551 17.01104736 C101.73434464 17.00841888 101.73434464 17.00841888 100.00517273 17.0057373 C96.24938954 17.00131608 92.49365298 17.00425774 88.73786926 17.00762939 C86.14094534 17.00695643 83.54402148 17.00598647 80.94709778 17.00473022 C75.49616338 17.00325288 70.04524669 17.00531438 64.59431458 17.0100708 C58.28397697 17.01551339 51.97367167 17.01375072 45.66333485 17.0082444 C39.60369226 17.00316758 33.54406554 17.0036948 27.48442078 17.00662613 C24.90070084 17.00729567 22.31698009 17.00646604 19.73326111 17.00414658 C16.12930583 17.00162165 12.52541357 17.0054584 8.92146301 17.01104736 C7.84194366 17.00902313 6.76242432 17.0069989 5.65019226 17.00491333 C4.1862352 17.00914307 4.1862352 17.00914307 2.69270325 17.01345825 C1.41289833 17.01402379 1.41289833 17.01402379 0.10723877 17.01460075 C-1.831679 16.92760745 -1.831679 16.92760745 -2.82463074 18.14044189 C-2.92250851 19.62870792 -2.95094853 21.12160196 -2.95161438 22.61308289 C-2.95584412 24.06225098 -2.95584412 24.06225098 -2.9601593 25.54069519 C-2.95813507 26.60929276 -2.95611084 27.67789032 -2.95402527 28.77886963 C-2.95577759 29.89746368 -2.95752991 31.01605774 -2.95933533 32.16854858 C-2.96375688 35.88705979 -2.96081458 39.6055239 -2.95744324 43.32403564 C-2.95811624 45.89614369 -2.95908623 48.46825167 -2.96034241 51.0403595 C-2.96181983 56.44001934 -2.95975821 61.83966131 -2.95500183 67.23931885 C-2.94956197 73.48715258 -2.95131988 79.73495366 -2.95682824 85.9827866 C-2.96190864 91.98476071 -2.96137635 97.98671883 -2.9584465 103.98869514 C-2.95777743 106.54646878 -2.95860498 109.10424324 -2.96092606 111.66201591 C-2.96345427 115.23223987 -2.9596094 118.80240042 -2.95402527 122.37261963 C-2.9560495 123.43919296 -2.95807373 124.5057663 -2.9601593 125.60466003 C-2.95733948 126.57359192 -2.95451965 127.5425238 -2.95161438 128.54081726 C-2.95123735 129.3857244 -2.95086033 130.23063154 -2.95047188 131.10114193 C-2.95396675 133.20783322 -2.95396675 133.20783322 -1.82463074 135.14044189 C-1.08182861 135.14630814 -0.33902649 135.15217438 0.42628479 135.15821838 C7.43013994 135.21614767 14.43367363 135.28822537 21.43720627 135.37615681 C25.03772997 135.42086443 28.63814044 135.46011931 32.23884583 135.48687744 C35.71444568 135.51290711 39.18960983 135.55330611 42.66493988 135.60362816 C44.63460448 135.62840688 46.60443765 135.63834276 48.57423401 135.64808655 C50.3756485 135.67777779 50.3756485 135.67777779 52.2134552 135.70806885 C53.27046631 135.71917191 54.32747742 135.73027496 55.41651917 135.74171448 C58.56106247 136.19618485 59.95541998 136.88673168 62.17536926 139.14044189 C62.73786926 142.57794189 62.73786926 142.57794189 62.17536926 146.14044189 C59.594715 148.77076886 57.91730715 150.01285802 54.26071167 150.64164734 C53.18848862 150.64181351 52.11626556 150.64197968 51.0115509 150.64215088 C49.79000809 150.65153183 48.56846527 150.66091278 47.30990601 150.670578 C45.34258766 150.65372704 45.34258766 150.65372704 43.33552551 150.63653564 C41.96698937 150.63669076 40.59845279 150.6381818 39.22991943 150.64094543 C36.36591599 150.64232752 33.50241448 150.62980604 30.63850403 150.60699463 C26.97890658 150.57863669 23.32014426 150.58134218 19.66048527 150.59408474 C16.83532663 150.60106195 14.0103588 150.59322909 11.18522453 150.58082771 C9.18342038 150.57415365 7.18158931 150.57844393 5.17977905 150.58293152 C3.95508408 150.57024734 2.7303891 150.55756317 1.46858215 150.54449463 C0.39556351 150.53909164 -0.67745514 150.53368866 -1.7829895 150.52812195 C-7.88439971 149.75045132 -11.88387498 146.70342225 -15.82463074 142.14044189 C-20.26186486 135.97205294 -20.3979882 130.92715282 -20.34220886 123.45709229 C-20.34921814 122.29849197 -20.35622742 121.13989166 -20.3634491 119.94618225 C-20.38101516 116.12657512 -20.36940954 112.30771247 -20.35588074 108.48809814 C-20.35857622 105.82682886 -20.36245341 103.16558193 -20.36747742 100.50431824 C-20.37474208 94.93022645 -20.36519848 89.35634708 -20.34611511 83.7822876 C-20.32435905 77.35364999 -20.33139282 70.92552015 -20.35342073 64.4968949 C-20.37162147 58.96202336 -20.37411005 53.42730395 -20.36366606 47.89241213 C-20.35745523 44.59345505 -20.35811701 41.29478652 -20.36981201 37.99583626 C-20.37999783 34.31460645 -20.36444543 30.63434401 -20.34220886 26.95318604 C-20.35030579 25.87085693 -20.35840271 24.78852783 -20.366745 23.67340088 C-20.28401033 16.260707 -19.20914769 10.56393601 -13.78947449 5.08184814 C-13.12045105 4.62680908 -12.45142761 4.17177002 -11.76213074 3.70294189 C-11.09052917 3.22985596 -10.41892761 2.75677002 -9.72697449 2.26934814 C-6.43618065 0.31649513 -3.74017556 0.01287121 0 0 Z " fill="#FDFAFE" transform="translate(72.82463073730469,52.85955810546875)"/>
<path d="M0 0 C6.28669792 4.85070757 10.41539366 11.18260872 12 19 C12.51432644 25.2556448 11.5985874 30.96247794 10 37 C10.80824219 37.59167969 11.61648437 38.18335938 12.44921875 38.79296875 C13.52880822 39.59092618 14.60822616 40.38911572 15.6875 41.1875 C16.74324219 41.96480469 17.79898438 42.74210937 18.88671875 43.54296875 C26.78966346 49.78004808 26.78966346 49.78004808 27.625 54.625 C27 58 27 58 24.875 59.9375 C21.5471641 61.1673524 19.53314464 61.37054932 16 61 C12.9296875 59.13671875 12.9296875 59.13671875 9.875 56.6875 C8.86179688 55.88699219 7.84859375 55.08648437 6.8046875 54.26171875 C5.12164016 52.90449812 3.4430231 51.54171549 1.7734375 50.16796875 C0.89558594 49.58982422 0.89558594 49.58982422 0 49 C-2.39562767 49.58809436 -2.39562767 49.58809436 -5 51 C-12.42271114 54.38579806 -18.80212249 55.15795085 -26.6875 52.75 C-35.56283875 49.4121343 -42.07059461 43.20683404 -46.4375 34.8125 C-49.06376052 28.18975608 -49.3268906 20.86529 -47.01171875 14.12109375 C-43.76355487 7.37336011 -39.96682102 2.26491415 -33.5625 -1.75 C-32.63566406 -2.34296875 -31.70882812 -2.9359375 -30.75390625 -3.546875 C-20.28537259 -9.07069702 -9.42074545 -6.09656813 0 0 Z " fill="#FDFBFE" transform="translate(176,134)"/>
<path d="M0 0 C1.19092758 -0.01051392 1.19092758 -0.01051392 2.40591431 -0.02124023 C5.02747689 -0.03882973 7.6479579 -0.02719461 10.26953125 -0.01367188 C12.09269416 -0.01636653 13.91585568 -0.02024872 15.73901367 -0.02526855 C19.55889578 -0.03116488 23.3784036 -0.02259641 27.19824219 -0.00390625 C32.09457694 0.01888349 36.9900347 0.00576111 41.88633728 -0.01819611 C45.65074267 -0.03265052 49.41494015 -0.02804976 53.17935181 -0.01768494 C54.98467106 -0.01501666 56.79000919 -0.01829097 58.5953064 -0.02760315 C61.11873367 -0.03776305 63.64074099 -0.02227675 66.1640625 0 C67.28320541 -0.01214539 67.28320541 -0.01214539 68.42495728 -0.02453613 C71.86515656 0.03172634 73.75748798 0.27454857 76.5456543 2.36242676 C78.64444964 5.30651001 78.67190849 6.97831468 78.08203125 10.51757812 C76.21493215 12.82033369 74.72555384 14.19581683 72.08203125 15.51757812 C69.6067826 15.63639911 67.15875775 15.69587161 64.68237305 15.71044922 C63.91958038 15.71862671 63.15678772 15.7268042 62.37088013 15.73522949 C59.84101143 15.76008644 57.31119886 15.77660013 54.78125 15.79101562 C53.48600371 15.79900114 53.48600371 15.79900114 52.16459084 15.80714798 C47.59419263 15.83388078 43.02382175 15.8532553 38.45336914 15.86767578 C33.73193439 15.88432486 29.01119751 15.92910396 24.29002666 15.98004723 C20.66031591 16.01369845 17.03077125 16.02525083 13.40091896 16.03090286 C11.66056802 16.03762118 9.92022823 16.0528584 8.18002892 16.07679367 C5.74273134 16.10840442 3.30732168 16.108489 0.86987305 16.10107422 C0.15228317 16.11747955 -0.5653067 16.13388489 -1.30464172 16.15078735 C-5.17258655 16.10267105 -6.80268565 15.60917167 -9.86955261 13.17251587 C-11.91796875 10.51757812 -11.91796875 10.51757812 -12.48046875 7.45507812 C-11.13220014 0.41411985 -6.30688463 -0.06844483 0 0 Z " fill="#FCF8FE" transform="translate(94.91796875,90.482421875)"/>
<path d="M0 0 C4.6192119 2.289781 7.2812426 5.49727493 9.0078125 10.33984375 C9.74051596 15.37718001 8.81558807 19.14746948 6.40234375 23.5390625 C3.08958259 27.81688573 -1.37000246 29.11216866 -6.5546875 29.83984375 C-11.67760685 29.09469184 -15.26522256 27.18193968 -18.8671875 23.33984375 C-21.31630201 18.98586241 -21.66821523 14.27198972 -20.9921875 9.33984375 C-16.66058551 0.67663978 -9.26456165 -3.07002141 0 0 Z " fill="#B231F4" transform="translate(163.9921875,143.66015625)"/>
<path d="M0 0 C0.80610718 -0.0038269 1.61221436 -0.00765381 2.44274902 -0.01159668 C4.14397432 -0.0143139 5.84524153 -0.0069659 7.54638672 0.00976562 C10.14775896 0.0311801 12.74636972 0.00995981 15.34765625 -0.015625 C17.00261025 -0.01298169 18.65756254 -0.00785663 20.3125 0 C21.47670471 -0.01214539 21.47670471 -0.01214539 22.66442871 -0.02453613 C26.20393244 0.03680403 28.26562674 0.24172923 31.14648438 2.37695312 C33.21185986 5.32405424 33.24360282 7.00713306 32.65625 10.53125 C31.14648438 12.68334961 31.14648438 12.68334961 28.65625 14.53125 C25.74639508 14.94112835 23.22158546 15.11624665 20.3125 15.09765625 C19.10333923 15.10695412 19.10333923 15.10695412 17.86975098 15.11643982 C16.16855068 15.12353124 14.46728088 15.1203757 12.76611328 15.10766602 C10.16439113 15.09379341 7.56626246 15.12788248 4.96484375 15.16601562 C3.30989495 15.16696681 1.65494166 15.16510801 0 15.16015625 C-0.77613647 15.17341446 -1.55227295 15.18667267 -2.35192871 15.20033264 C-6.25024171 15.13317896 -7.96876489 14.88950783 -10.83398438 12.15209961 C-12.53436624 9.20035328 -13.0277351 7.86567735 -12.34375 4.53125 C-9.01982666 -0.13428277 -5.32643928 -0.05556725 0 0 Z " fill="#FEFCFE" transform="translate(95.34375,120.46875)"/>
</svg>
